<?xml version="1.0" encoding="utf-8"?>
<!-- Generator: Adobe Illustrator 23.1.0, SVG Export Plug-In . SVG Version: 6.00 Build 0)  -->
<svg version="1.1" id="Layer_1" xmlns="http://www.w3.org/2000/svg" xmlns:xlink="http://www.w3.org/1999/xlink" x="0px" y="0px"
	 viewBox="0 0 336 133" style="enable-background:new 0 0 336 133;" xml:space="preserve">
<style type="text/css">
	.st0{fill:#C49A6C;}
</style>
<path class="st0" d="M334.86,20.68c0.21-1.92,0.41-3.84,0.64-5.76V1.77c-4.01-0.46-8.02-0.9-12.05-1.2
	c-0.38-0.03-0.76-0.05-1.15-0.07h-20.72c-1.49,0.04-2.97,0.15-4.41,0.43c-2.44,0.48-4.48,2.1-6.93,2.55
	c-1.78,0.33-3.59-0.21-5.32-0.58c-2.45-0.53-4.83-0.45-7.33-0.4c-21.93,0.42-43.84,0.23-65.76,0.12
	c-22.05-0.11-44.09,0.97-66.15,0.93c-10.93-0.02-21.82-0.18-32.69,1.12c-10.59,1.26-21.1-0.64-31.67-1.09
	C76,3.34,70.68,2.96,65.35,2.62c-4.84-0.31-9.69-0.26-14.42-1.4c-0.17-0.04-0.33-0.08-0.49-0.12c-2.23,0.16-4.45,0.32-6.68,0.49
	c-0.75,0.25-1.49,0.51-2.25,0.72c-1.87,0.51-3.55,0.39-5.07-0.19c-0.7,0.05-1.4,0.1-2.09,0.15c-0.29,0.76-0.95,1.36-1.85,1.28
	c-1.99-0.18-3.97-0.44-5.94-0.74C18.11,3.37,9.65,3.86,1.19,4.19c1.38,5.65-0.23,11.89-0.23,17.59c0,8.32,0.19,16.62,0.4,24.93
	c0.2,8.15,1.02,16.19,0.35,24.34c-0.34,4.16-0.78,8.32-1.21,12.48v46.45c3.74-0.27,7.51,0.05,11.23,0.42
	c3.28,0.32,6.55,0.73,9.84,0.88c3.69,0.17,7.39-0.22,11.06-0.53c4.59-0.38,9.19-0.76,13.79-0.65c4.78,0.12,9.56,0.3,14.34,0.47
	c9.53,0.34,19.06,0.67,28.6,0.67c4.68,0,9.37,0,14.05-0.27c1.97-0.12,3.67-1.77,5.67-1.51c0.96,0.12,1.84,0.73,2.54,1.35
	c0.28,0.25,0.58,0.61,0.84,0.86c4.21,0.37,8.44,0.58,12.66,0.7c1.73,0.05,3.46,0.09,5.2,0.11h118.67c5.55-0.14,11.1-0.25,16.64-0.54
	c7.51-0.4,14.7-2.92,22.16-3.74c12.9-1.41,25.89,1,38.56,3.21c1.94,0.34,4.27,0.86,6.23,0.42c0.71-0.16,0.8-0.27,0.74-1.31
	c-0.09-1.67,0.41-3.21,0.57-4.86c0.37-3.86-0.21-7.73-0.61-11.56c-0.39-3.76,0.11-7.02,0.99-10.68c0.34-1.41,0.84-3.04,0.51-4.49
	c-0.34-1.49-1.44-2.82-2-4.24c-1.42-3.61,0.22-7.49,0.32-11.2c0.22-7.8-0.41-15.58-0.84-23.36c-0.45-7.94-0.75-15.97,0.24-23.87
	C333.17,30.96,334.29,25.88,334.86,20.68z"/>
</svg>
